<?xml version="1.0" encoding="UTF-8"?>
<!DOCTYPE svg PUBLIC "-//W3C//DTD SVG 1.1//EN" "http://www.w3.org/Graphics/SVG/1.1/DTD/svg11.dtd">
<!-- Creator: CorelDRAW -->
<svg xmlns="http://www.w3.org/2000/svg" xml:space="preserve" width="31.75mm" height="37.0416mm" version="1.1" style="shape-rendering:geometricPrecision; text-rendering:geometricPrecision; image-rendering:optimizeQuality; fill-rule:evenodd; clip-rule:evenodd"
viewBox="0 0 3175 3704.16"
 xmlns:xlink="http://www.w3.org/1999/xlink"
 xmlns:xodm="http://www.corel.com/coreldraw/odm/2003">
 <defs>
  <style type="text/css">
   <![CDATA[
    .fil1 {fill:#727271}
    .fil0 {fill:#727271;fill-rule:nonzero}
   ]]>
  </style>
 </defs>
 <g id="Слой_x0020_1">
  <metadata id="CorelCorpID_0Corel-Layer"/>
  <g id="_2364923860128">
   <g>
    <path class="fil0" d="M2270.43 951.44l129.14 0c0.07,5.46 -0.03,9.94 -0.03,14.6 0.06,178.7 0.43,357.4 -0.19,536.1 -0.18,51.06 -8.57,100.99 -29.51,148.22 -32.31,72.86 -87.27,119.86 -163.89,139.95 -74.04,19.42 -148.72,19.34 -222.15,-3.33 -85.11,-26.28 -137.88,-85.33 -164.47,-169.06 -13.03,-41.01 -17.39,-83.29 -17.39,-126.15 0.01,-173.85 -0.02,-347.69 -0.04,-521.53 0,-5.8 0,-11.6 0,-18.56l128.91 -0.03c0.2,7.11 0.04,13.7 0.05,20.44 0.07,166.28 -0.06,332.56 0.15,498.84 0.04,30.74 1.15,61.42 10.51,91.27 20.6,65.65 65.62,102.14 132.92,111.62 41.26,5.82 81.04,-0.49 117.13,-21.81 45.65,-26.98 67.87,-69.69 74.97,-120.73 2.9,-20.74 3.68,-41.93 3.72,-62.91 0.29,-165.2 0.17,-330.4 0.17,-495.61l0 -21.32z"/>
    <path class="fil0" d="M1301.01 1942.78l0 122.4c-6.54,0.3 -12.29,0.79 -18.02,0.79 -67.48,0.07 -134.96,-0.31 -202.44,0.21 -33.79,0.26 -64.91,10.19 -91.81,31.2 -32.09,25.08 -48.36,72.84 -37.63,108.6 7.24,24.11 23.8,41.08 43.94,54.16 14.34,9.31 30.1,17.07 46.17,22.94 37.46,13.7 75.52,25.72 113.27,38.64 35.76,12.24 71.06,25.71 103.96,44.55 64.29,36.8 98.16,91.96 99.27,166.52 0.51,33.63 -2.26,66.91 -11.85,99.27 -22.82,77.05 -75.45,123.62 -151.03,146.3 -35.99,10.79 -73.04,14.28 -110.38,14.39 -72.33,0.22 -144.66,-0.14 -216.99,-0.25 -5.81,-0.01 -11.6,0 -18.59,0l0 -118.92c7.34,-0.43 14.18,-1.18 21.03,-1.19 45.88,-0.04 91.76,0.56 137.62,-0.03 34.49,-0.44 69.01,-1.53 103.41,-3.87 26.24,-1.79 50.66,-10.74 72.19,-26.21 32.5,-23.34 46.66,-55.94 44.87,-95.17 -1.14,-25.03 -14.58,-44.63 -32.59,-61.27 -19.49,-18.01 -43.24,-28.59 -67.76,-36.92 -44.41,-15.09 -89.53,-28.1 -133.86,-43.42 -26.45,-9.15 -53.24,-18.7 -77.62,-32.15 -62.48,-34.43 -96.41,-87.65 -97.51,-160.16 -0.51,-33.54 0.96,-66.76 9.55,-99.54 17.49,-66.78 56.12,-115.72 119.47,-144.18 31.29,-14.06 64.34,-21.75 98.49,-23.97 24.16,-1.57 48.4,-2.44 72.61,-2.61 54.52,-0.37 109.04,-0.11 163.56,-0.11l18.67 0z"/>
    <path class="fil0" d="M2041.36 2790.33c-0.01,-226.64 0.01,-472.37 0.01,-699.01 0,-6.87 0,-13.73 0,-22.48l-235.13 0c-0.09,-14.83 0.06,-102.3 -0.05,-123.67 11.58,-0.04 569.55,-0.11 592.37,-0.01 0.03,14.73 -0.73,95 0.02,123.67 -37.67,-0.13 -74.6,-0.22 -112.08,-0.27 -37.73,-0.04 -75.45,0 -114.99,0 -2.23,40.78 -0.68,80.5 -0.97,120.17 -0.29,39.93 -0.06,79.87 -0.06,119.8l0 119.79 0 119.8 0 119.8c0,39.86 0.09,80.79 0.09,122.43 -7.49,-0.05 -12.16,0.01 -16.92,-0.03 -31.3,0.08 -80.99,0.05 -112.29,0.01z"/>
    <path class="fil0" d="M1067.33 946.6l127.94 0c0.42,6.66 1.16,12.86 1.17,19.06 0.07,111.69 0.06,223.38 0.06,335.07 0.01,73.38 0.39,146.77 -0.16,220.14 -0.28,37.26 -3.85,74.26 -14.91,110.2 -29.93,97.25 -97.39,149.67 -196.4,163.4 -22.85,3.16 -46.23,2.7 -69.38,3.52 -5.76,0.2 -11.58,-1.13 -18.36,-1.86l0 -123.24c5.72,0 10.86,0.22 15.98,-0.04 17.15,-0.85 34.8,0.41 51.35,-3.24 52.92,-11.69 83.5,-47.2 96.1,-98.31 4.59,-18.64 6.32,-38.41 6.37,-57.66 0.45,-183.45 0.25,-366.91 0.24,-550.36 0,-4.8 0,-9.61 0,-16.68z"/>
    <rect class="fil1" x="775.3" y="958.6" width="126.36" height="136.94"/>
   </g>
   <path class="fil1" d="M219 498.7l2735.78 0 0 2743.5 -2735.78 0 0 -2743.5zm-126.52 2865.57l2990.04 0 0 -2989.12 -2990.04 0 0 2989.12z"/>
  </g>
 </g>
</svg>
